; Version : LOCAL
; Job     : D:\Job\SolidRun\ARMighty-Rev-2.1\PCB\ARMighty.pcb
; User    : VENUS:itzik
; Date    : Tue Sep 01 09:06:44 2015
; Format  : 3.3 / Absolute / MM / Leading
; Contents: Thru / Drill / Plated
M48
METRIC,TZ
FMAT,2
ICI,OFF
T27C0.2032
T26C0.2540
T14C0.6500
T08C0.7000
T15C0.8000
T06C0.8128
T18C0.8500
T12C0.8890
T16C0.9500
T07C0.9906
T20C1.0000
T01C1.0160
T17C1.0500
T13C1.0922
T19C1.3000
T34C1.6000
T11C1.6510
T05C1.7018
T09C2.3000
T10C2.4000
T28C2.9000
T02C3.7000
T03C3.8000
%
M71
G90
G93X0Y0
T27
X26798Y9939
X26825Y8356
X27594Y9152
X28381Y9930
X28409Y8356
X14152Y20030
X15335Y20041
X16562Y20035
X16557Y21054
Y22139
X15987Y20495
X15932Y21618
X15335Y21060
Y22133
X14694Y21618
X14678Y20523
X14152Y21054
X14146Y22128
X13805Y28932
Y29957
X14331Y29425
X14988Y28943
Y29962
X15640Y29398
X16210Y29957
X16216Y28938
X16210Y31041
X15586Y30521
X14988Y31036
X14348Y30521
X13800Y31030
X12339Y40325
X12634Y39555
X12643Y38764
X12368Y40962
X32855Y44227
Y45685
X34362Y44216
X34380Y45670
X36677Y45661
X36686Y44235
X38369Y45685
X38452Y44254
X38355Y47144
X36686Y47133
X34380Y47124
T26
X223443Y1497
X15240Y2540
X35560
X40640
X45720
X60960
X66040
X71120
X76200
X81280
X86360
X91440
X96520
X101600
X106680
X111760
X116840
X121920
X127000
X132080
X137160
X142240
X147320
X152400
X157480
X162560
X170180
X175260
X180340
X185420
X190500
X195580
X200660
X205740
X213360
X218440
X223443Y5910
X220980Y5080
X215900
X208280
X203200
X198120
X193040
X187960
X182880
X177800
X172720
X167640
X160020
X154940
X149860
X144780
X139700
X134620
X129540
X124460
X116840
X111760
X104140
X99060
X93980
X73660
X63500
X58420
X48260
X43180
X38100
X33020
X29447Y6473
X27730Y6533
X26755Y6362
X25983Y7535
X22860Y5080
X17780
X12700
X7620
X2540
X5080Y7620
X10160
X15240
X20320
X24954Y8870
X30753Y8369
X33710Y9524
X35560Y7620
X40640
X45720
X50800
X66040
X76200
X83820
X88101Y9699
X132080Y7620
X137160
X147320
X180340
X195580
X134620Y10160
X119380
X114300
X73660
X39106Y12277
X38735Y10160
X37008Y12298
X35141Y12235
X32266Y11650
X31315Y12425
X29275Y10733
X29182Y11640
X26524Y11735
X22860Y10160
X17780
X15787Y11719
X12700Y10160
X7620
X2540
X7405Y14973
X8319Y14074
X8959Y14699
X9766Y13998
X10345Y14745
X16029Y14256
X25400Y12700
X26344Y12787
X27969Y13179
X29764Y12999
X34134Y13368
X36001Y13473
X37910Y13452
X40640Y14605
X71120Y12700
X76200
X81280
X86360
X109220
X114300
X116840
X119380
X119445Y14840
X165886Y15100
X169024Y15008
X171246Y15046
X176243Y15002
X182652Y15191
X185684Y15226
X189207Y15156
X223368Y16084
X205290Y17056
X204008Y17343
X202010Y15308
X201052Y17398
X198955Y15328
X197719Y17377
X195574Y15263
X194823Y17334
X192029Y15263
X191802Y17295
X188708Y17314
X185684Y17336
X182618
X180040Y17107
X174798Y17189
X171738Y17132
X168676Y17314
X165600Y17324
X162550Y17314
X159498
X156438Y17305
X153382Y17314
X146796Y16658
X145461Y17375
X142375Y17288
X139454Y17274
X136281Y17226
X133231Y17216
X130183Y17284
X127093Y17216
X124015Y17303
X116840Y15240
X114300
X109220
X88900
X83820
X66040
X46790Y15470
X37617Y17339
X13823Y16516
X11810Y17282
X11290Y15857
X9782Y15872
X8258Y15888
X7557Y17030
X2540Y15240
X7542Y18127
X8285Y18865
X8306Y19947
X11250Y19206
X11287Y20053
X13838Y18817
X14554Y18025
X15270Y18878
X15910Y17994
X16626Y18817
X18115Y18015
X37996Y19076
X43459Y19336
X76402Y20211
X86360Y17780
X109220
X114300
X116840
X113559Y20499
X111124Y20613
X88900Y20320
X83820
X24224Y22720
X22610Y22758
X21317Y22729
X11322Y21039
X11316Y21750
X8296Y21082
X8234Y22319
X4953Y23368
X8245Y24536
X8255Y23402
X12025Y24300
X13676Y23413
X14523Y22893
X14959Y23711
X15773Y22939
X15940Y24295
X16565Y23670
X21375Y24351
X22814Y24424
X25354
X37611Y24830
X39184Y23771
X54947Y24666
X59690Y24765
X86360Y22860
X89285Y25345
X109452Y23460
X109484Y25363
X110874Y24757
X112033Y25252
X114362Y23421
X115323Y25136
X119456Y23168
X119552Y25087
X223520Y25400
X117226Y26792
X109325Y27204
X108693Y26747
X89285Y27335
X89265Y26310
X51713Y26244
X50435Y26170
X48992Y26198
X37616Y27834
X35877Y27772
X32334Y27862
X31314Y27457
X25834Y27195
X23263Y27211
X18143Y27323
X16649Y26679
X15217Y26756
X13906Y26725
X13199Y27643
X10943Y27574
X8071Y27565
X7496Y26808
X7456Y25497
X6277Y25457
X6257Y26706
X2540Y25400
X4953Y27940
X8082Y29782
X8092Y28647
X10914Y28434
X10945Y30269
X14363Y28203
X15674
X19122Y29862
X31110Y29276
X32306Y29324
X34603Y30329
X36667Y30119
X36710Y28582
X37644Y29458
X223520Y30480
X216779Y32377
X215642Y32380
X206947Y32376
X206880Y30966
X179229Y32518
X177289Y32649
X118955Y32468
X116740Y32460
X110576Y32448
X89728Y31689
X86452Y32386
X84029Y31574
X82129Y31560
X74636Y31746
X74036Y32368
X73229Y32349
X72348Y31759
X71954Y32489
X71637Y31759
X70968Y32506
X70234Y32538
X39100Y31323
X37132Y31361
X36796Y32819
X34475Y31955
X33757Y30999
X19220Y30667
X19063Y31378
X18939Y32377
X15727Y32134
X14818Y32951
X8092Y32076
X8071Y30994
X2540Y30480
X4953Y33020
X6295Y35441
X6341Y34222
X7514Y34252
X8082Y33211
X9891Y35106
X11750Y35456
X14157Y35395
X14305Y33549
X15742Y35471
X16458Y34130
X34806Y35366
X68671Y33298
X69157Y34006
X69435Y33279
X70636Y33227
X71655Y34549
X72542Y34442
X73518Y34123
X73690Y33028
X75492Y34449
X85452Y34035
X86928Y33303
X87097Y34367
X87592Y34957
X87897Y33710
X95802Y34673
X96902Y35335
X97915
X98655Y34638
X99451Y35345
X99579Y34354
X101009Y35345
X101708Y34249
X101922Y35335
X102787Y35285
X103486Y34368
X110706Y34861
X112265Y33483
X113044Y34745
X117752Y33792
X119950Y33758
X122002Y34168
X123022
X123450Y34987
X125062Y34168
X126082
X126295Y34963
X128122Y34168
X129142
X131182
X132202
X132509Y34868
X134242Y34168
X135262
X135629Y34925
X137302Y34168
X138322
X138701Y34873
X140362Y34168
X141382
X141807Y34884
X143422Y34168
X144442
X144725Y34951
X146550Y34079
X151339Y34168
X152359
X152597Y34879
X154399Y34168
X155419
X155664Y34921
X157459Y34168
X158479
X158703Y34886
X160227
X160519Y34168
X161539
X163579
X164599
X164983Y34883
X166639Y34168
X167659
X168079Y34896
X169699Y34168
X170719
X171012Y34911
X172546Y34941
X172759Y34168
X173779
X176141Y34076
X177305Y33620
X179107Y33589
X182588Y34187
X185731Y34177
X188725
X191768Y34186
X193268Y35104
X195085Y34174
X197959
X200926Y34216
X203712Y34318
X204653Y34292
X205515Y33149
X207048Y33932
X215681Y33677
X216440Y33149
X216725Y34165
X223520Y35560
X206558Y37633
X205484Y37104
X204149Y37971
X203154Y37175
X200493Y36584
X197368Y36770
X194413Y37548
X192286Y36343
X191825Y37929
X189699Y35894
X104544Y36803
X104324Y37830
X94888Y36672
X87592Y36729
X87021Y37417
X86730Y35616
X78945Y37497
X72755Y35613
X55245Y36830
X52705
X52348Y37921
X52135Y35778
X51545Y37256
X51424Y35983
X50833Y37265
X48591Y37570
X47740Y35871
X37321Y37373
X36386Y35978
X36227Y37113
X34419Y37359
X34131Y35999
X33349Y36516
X29951Y37143
X29161Y37579
X23016Y37854
X16458Y36629
X15041Y36675
X14048Y37625
X13441Y36645
X11735Y36660
X10714Y36050
X10155Y37607
X9906Y36843
X9265Y35970
X8764Y36843
X2540Y35560
X4953Y38100
X8340Y39489
X8515Y40200
X9945Y38693
X14005Y38362
X15743Y39491
X18473Y39512
X22820Y39932
X23871Y39874
X25084Y39989
X26941Y38767
X27176Y39554
X28957Y39063
X29204Y38304
X29321Y40446
X30642Y39999
X32602Y40089
X32920Y38531
X34334Y39075
X35121Y39978
X35720Y40558
X37141Y40091
X45589Y38683
X50843Y38733
X53975Y38735
X55245Y40005
X57150Y38735
X58382Y38989
X58420Y40005
X59258Y39670
X59624Y40434
X62865Y40005
X66040
X72537Y39167
X73209Y39500
X74123Y39491
X74428Y38612
X76527Y40255
X78577Y38350
X79044Y38898
X79333Y40119
X79755Y38864
X79853Y39598
X83384Y39633
X85136Y40519
X86983Y38462
X113365Y38688
X122555Y39370
X125730
X128270
X130810
X133350
X135890
X149860
X153035
X179705
X193861Y38871
X195538Y39078
X195584Y38330
X195882Y39739
X196614Y40394
X196764Y39463
X198597Y39459
X198604Y40386
X200717Y39408
X200743Y40386
X200813Y38373
X203239Y39543
X207085Y39838
X220980Y38100
X223520Y40640
X203391Y42966
X203321Y41745
X201670Y40768
X200679Y42388
X200661Y41459
X199606Y41437
X198599
X155575Y40640
X153670Y41910
X151130Y40640
X137160
X135890Y41910
X133350
X130810
X128270
X124460
X111760Y40640
X101305Y42885
X97339Y42302
X80768Y41705
X79654Y41541
X79367Y40830
X76426Y41677
X76407Y40966
X76366Y42473
X73972Y41265
X69938Y42937
X69535Y42329
X69103Y42902
X68209Y42781
X66675Y41910
X64380Y40741
X64135Y41910
X58258Y43157
X57150Y41275
X48581Y41303
X48542Y42997
X45717Y42250
X45416Y41526
X43571Y41368
X42117
X40881Y41733
X40373Y42391
X39463Y41692
X39256Y40918
X38138Y40863
X37427Y40815
X31193Y41838
X27324Y40956
X24970Y41737
X24879Y40859
X24250Y42795
X15347Y41907
X14195Y41604
X14175Y42515
X8269Y42484
X8090Y41633
X2540Y40640
X4953Y43180
X8382Y43434
Y44958
X9906Y44196
X11430Y43434
Y44958
X12954Y44196
X14478Y43434
Y44958
X16002Y44196
X23674Y43438
X24801Y44043
X25680Y44915
X26776Y45532
X27133Y44801
X28512Y44571
X29144Y45444
X29636Y44561
X30324Y45498
X40831Y43972
X41588Y43332
X43229Y43393
X45164Y45340
X45186Y44524
X45235Y43204
X45975Y44862
X46144Y43283
X48558Y43731
X51314Y43281
X52288Y45375
X52848Y43405
X53363Y44009
X58959Y44882
X59055Y43815
X62230
X64770
X69216Y44147
X70010Y44329
X70805Y44316
X71119Y43522
X73771Y43541
X76390Y43896
X76393Y44607
X76406Y43185
X78894Y44051
X79507Y43219
X79605Y44018
X80384Y44668
X81125Y44658
X81550Y44004
X83252Y45280
X94919Y45005
X98226Y43538
X99056Y43486
X99784
X100626Y43551
X103927Y44949
X110527Y44471
X114300Y44450
X127000
X128269Y45701
X130810Y44450
X133350
X135890
X138430
X143510
X144780Y43180
X146050Y44450
X156210
X161290Y45085
X165100Y43180
Y45085
X167640Y43180
X168910Y45085
X176530Y44450
X198621Y43606
X200013Y44510
X200563Y43357
X201041Y44515
X203259Y43678
X203434Y45406
X203680Y44694
X205000Y45641
X205491Y45126
X206759Y43688
X220980Y43180
X223520Y45720
X207227Y48026
X198386Y47641
X176909Y47672
X167005Y46990
X163195
X158750
X147320Y45720
X144780
X142240
X138430Y46990
X135890
X133350
X111760Y47625
X84949Y47241
X81827Y46756
X80859Y48002
X80857Y47287
X80759Y46554
X80055Y48240
X80048Y46521
X79330Y46528
X76571Y45997
X76366Y46720
X73723Y46668
X72968Y46759
X72957Y47481
X72045Y47654
X54054Y48149
X48596Y46261
X48464Y47768
X48450Y46982
X46174Y46277
X46135Y47843
X45395Y46266
X45380Y47303
X44683Y46190
X29983Y47815
X25699Y45865
X25576Y47947
X25042Y47013
X24788Y47913
X23770Y47170
X23555Y48070
X22659Y46764
X22400Y47835
X21556Y46928
X20919Y47490
X16002Y45720
Y47244
X14478Y46482
Y48006
X12954Y45720
Y47244
X11430Y46482
Y48006
X9906Y45720
Y47244
X8382Y46482
Y48006
X2540Y45720
X4953Y48260
X12737Y48875
X31200Y49696
X35547Y50543
X37034Y50621
X46168Y48950
X48476Y48479
X48490Y49282
X51220Y48743
X52717Y49735
X57343Y50277
X60773Y49444
Y50160
X61737Y48333
X65405Y49530
X71437Y49391
X72612Y48497
X72723Y49973
X73153Y49394
X74061Y49098
X74123Y50292
X76426Y49247
X76439Y50054
X76462Y48536
X78998Y49226
X79474Y50463
X79478Y49752
X82086Y48508
X105486Y50262
X120015Y48895
X125095
X132080Y49530
X135890
X161241Y49298
X165166Y49272
X168881Y49298
X172648Y49325
X175635Y49312
X201277Y49914
X202100Y50394
X202225Y49165
X202805Y49592
X203243Y50299
X203629Y48930
X204192Y49804
X204299Y48574
X204997Y50654
X205660Y49880
X205776Y48585
X205823Y50597
X206300Y49066
X206493Y49926
X207263Y49549
X207316Y48838
X220980Y48260
X223520Y50800
X207763Y52589
X206724Y51312
X204819Y52433
X204238Y51874
X201625Y53187
X187750Y52916
X187623Y52151
X183431Y52267
X180340Y52070
X148590Y50800
X146050
X143510
X140970
X138430
X127635Y52070
X122555
X118110
X109239Y52198
X102902Y51679
X102191Y51438
X101458Y51430
X100710Y51643
X98201Y52221
X97409Y52197
X96647
X95826Y52215
X84596Y51364
X83340Y52315
X81534Y52830
X80781Y51082
X79551Y51503
X79369Y52945
X79363Y52219
X78969Y50964
X74050Y52365
X73518Y51415
X73486Y52887
X72197Y51024
X65405Y52070
X61595
X60773Y50942
X59282Y53132
X53953Y51773
X53549Y52667
X50932Y51562
X50760Y52467
X48485Y52377
X44452Y51803
X44450Y53336
X41051Y53021
X39538Y53221
X37596Y53249
X36282Y51351
X34683Y51314
X33657Y50895
X33460Y52569
X23675Y53072
X22446Y51367
X21851Y53205
X21799Y52199
X15240Y50800
X2540
X4953Y53340
X6994Y54229
X24027Y53735
X24840Y54455
X25517Y55634
X32990Y53768
X34471Y53603
X38623Y53870
X41051Y55288
X44919Y54903
X46655Y55144
X46846Y54286
X47316Y55772
X47462Y54725
X48448Y53428
X48572Y54929
X49296Y53455
X50576Y54161
X61083Y53702
X65405Y53975
X72771Y55517
X72818Y53634
X73585Y54304
X74213Y55747
X77400Y55156
X79102Y54110
X79859Y53610
X81130Y55552
X82931Y54483
X84638Y53749
X86718Y53502
X88568Y55353
X92775Y55645
X94996Y55634
X97476Y55826
X102111Y55767
X104931Y55738
X108540Y55724
X111986Y55547
X137160Y53340
X139700
X142240
X144780
X147320
X149860
X152400Y54610
X178435Y53975
X181610
X183236Y53734
X185910Y55014
X188394Y54245
X188448Y55350
X190603Y55818
X191359Y53989
X192440Y54021
X195352Y53979
X195360Y54998
X198199Y53915
X199021Y53917
X200047Y53974
X201338Y53924
X201415Y55248
X220980Y53340
X223520Y55880
X206859Y57745
X204088Y57784
X203905Y56653
X201296Y57866
X200500Y57865
X199328Y57339
X198978Y58001
X198587Y57379
X197269Y57877
X196176Y57810
X194886Y57812
X192601Y57870
X188662Y56075
X188560Y57396
X188355Y58412
X185754Y56623
X183718Y57512
X182057Y56604
X181610Y57785
X179705Y55880
X175015Y57699
X170100Y57673
X154940Y57150
X153670Y55880
X151130
X148590
X146050
X143510
X140970
X138430
X134620
X130175
X125095
X120015
X114935
X99690Y55885
X90575Y57018
X86951Y55982
X85217Y56515
X83058Y57404
X79409Y57539
X78058Y57579
X77527Y56902
X74385Y56763
X72858Y56498
X59045Y56162
X58364Y57138
X56433Y57744
X44919Y56160
X43730Y55954
X35995Y56106
X30741Y58087
X29371Y56474
X26373Y56396
X25405Y56646
X4953Y55880
X2540
X26051Y58822
X28503Y60847
X29591Y58897
X30236Y60920
X30742Y59455
X31576Y60846
X33864Y59678
X34841Y59176
X47669Y59183
X56453Y58736
X56967Y60034
X57390Y59232
X62404Y60725
X63115Y60703
X63838Y60205
X64061Y59161
X64886Y59182
X65684Y59130
X80819Y59201
X85090Y59690
X85632Y60344
X86343Y60335
X87121Y60400
X87376Y58674
X89621Y58747
X93061Y58685
X93838Y60227
X94996Y58764
X96332Y60180
X97461Y58675
X99000Y60148
X100783Y58572
X102883Y60140
X104786Y58499
X106971Y60157
X108013Y58554
X111152Y58609
X111778Y60157
X122555Y59690
X125095Y59055
X128270
X129540Y60325
X130810Y59055
X132715Y60325
X133985Y59055
X137160Y58420
X139065Y60325
X140970Y58420
X143510
X146050
X148590
X151130
X153670
X156210
X159385Y59055
X163195
X170100Y60137
X175059Y60890
X176530Y59690
X177800Y58420
X179070Y59690
X188343Y59708
X189140Y60930
X190256Y59469
X191494Y58596
X192503Y59297
X192572Y60470
X193550Y60480
X194886Y60497
X196179Y60433
X197178Y60467
X198955Y60767
X200377Y58647
X201371Y58653
X201433Y59843
X204147Y58576
X204157Y59287
X204757Y59733
X205311Y60275
X206092Y60270
X206803Y60240
X207010Y59055
X220980Y58420
X223520Y60960
X203916Y61945
X201349Y61551
X197213Y63084
X196133Y63185
X194940Y63064
X194904Y62038
X193188Y63134
X191661Y63323
X189313Y61988
X189052Y62757
X188337Y60984
X177800Y60960
X165100Y62230
X153035Y62865
X149225
X145415
X137795
X135890Y60960
X133350Y62865
X128270Y62230
X125095
X110810Y61854
X109294Y62541
X108557Y61962
X101098Y62540
X94062Y62637
X90878Y62654
X89662Y60960
X88428Y62000
X84435Y62788
X82973Y61338
X79424Y61074
X78199Y63325
X78185Y62520
X77098Y61222
X74588Y61186
X70788Y61108
X65247
X62979Y63017
X61854Y61410
X60293Y62209
X58912Y62956
X57940Y61306
X32516Y62648
X29739Y63253
X2540Y63500
X5976Y64887
X6618Y64092
X8463Y64317
X10703Y66029
X26321Y64759
X32341Y64304
X40809Y63889
Y65923
X45666Y66034
X45696Y63931
X50896Y63830
X55755Y63745
X57671Y65542
X57855Y63837
X60572Y64744
X64833Y63834
X73612Y64375
X73654Y65561
X74719Y64818
X74886Y63943
X78252Y64857
X78255Y64071
X79455Y63649
X94227Y64249
X94938Y64201
X96090Y64580
X97184Y64649
X98437Y63663
X101098Y64704
X104071Y65637
X127635Y64770
X130810
X135890Y65405
X147320Y64770
X151130
X154940
X166899Y65002
X167304Y65751
X168162Y65718
X169347Y65768
X170171Y65726
X171003Y65777
X173990Y64770
X176530
X179070
X180340Y63500
X181610Y64770
X182880Y63500
X189102Y63848
X191647Y64192
X191661Y64917
X192417Y64194
X194021Y64240
X195518Y64210
X196997Y64163
X201391Y65812
X204046Y65934
X210584Y65669
X211552Y64870
X211798Y65715
X212505Y64777
X212782Y65684
X220980Y63500
X223520Y66040
X215738Y67208
X215060Y67537
X213947Y66726
X213478Y67263
X208740Y66959
X207999Y67958
X200749Y67053
X199779Y67052
X198907Y67053
X197883
X196221Y66981
X194492Y66215
X192114Y66288
X189574Y66916
X186930Y68404
X186534Y67243
X183168Y67637
X180340Y66040
X177800
X175260
X172720
X168879Y66377
X164465Y66040
X153035Y66675
X149225
X145415
X133350Y67310
X130175
X121968Y66465
X105686Y66664
X100252Y68117
X99367Y67321
X98859Y67921
X94487Y67276
X91440Y66675
X87630
X84389Y66689
X81915Y66040
X79440Y66178
X74800Y67596
X73756Y67079
X72701Y66046
X71711Y66966
X65585Y67482
X61572Y67526
X60109Y66821
X57327Y66204
X56177Y67666
X54848Y66701
X52598Y67731
X51688
X51435Y66675
X49033Y67216
X48417Y66069
X45620Y67999
X40877Y67980
X33101Y66286
X32937Y68350
X31929Y66831
X30419Y66301
X9161Y66876
X7466Y66114
X4953Y66040
X19399Y70443
X25903Y69903
X26815
X29682Y68646
X35266Y70346
X36856Y70629
X37626Y68975
X40855Y70517
X45666Y70460
X51435Y69850
X57785Y69723
X63740Y69707
X66034Y69453
X74755Y70024
X79485Y68753
X85633Y68929
X88438Y68891
X98976Y68937
X108658Y70169
X109467Y70586
X109924Y69510
X110496Y68965
X111629Y69667
X114678Y70125
X121813Y68590
X132715Y69850
X135890Y68580
X139065
X143510
X147320
X151130
X154940
X161925
X165735
X168850Y70589
X175895Y69215
X177165Y70485
X179070Y69215
X179705Y70485
X181285Y69375
X184150Y69215
X188174Y69321
X189210Y70612
X189256Y69607
X191115Y69440
X192618Y70572
X195661Y69496
X198270Y69603
X205858Y70276
X206897Y69117
X213963Y70021
X216452Y70532
X216458Y68923
X223520Y71120
X218140Y72756
X218103Y71821
X217070Y73609
X216062Y72583
X215024Y73525
X214058Y71592
X212731Y71349
X211306Y72798
X206861Y71897
X202908Y73022
X201764Y73324
X200758Y71959
X195672Y72043
X194333Y73114
X190799Y72680
X190304Y73250
X189884Y72118
X189295Y71700
X188374Y72273
Y73041
X186403Y72573
X184150Y73025
X182245Y71120
X180340Y73025
X177800Y72390
X175895
X168877Y73455
X165100Y71755
X160020
X154305
X148389Y71699
X143612Y71761
X137160Y71755
X125095Y73025
X121285
X118110
X114935
X110496Y72775
X109988Y73354
X109257Y72962
X108108Y72835
X107334Y72781
X106548Y73026
X105881Y73600
X100919Y71675
X88746Y72636
X61852Y73379
X60965Y72236
X58113Y72247
X54639Y72649
X45643Y73249
X40809Y73214
X39504Y72811
X37285Y73349
X35195Y72131
X35142Y71384
X15240Y71120
X14239Y72316
X2540Y71120
X4953Y73660
X10160
X20274Y75740
X20708Y73702
X25400Y73660
X28037Y74452
X29045Y73948
X30480Y73660
X46077Y75532
X49504Y73670
X51394Y75787
X54621Y74422
X57899Y75370
X59199Y75198
X60246Y74893
X64798Y73737
X64851Y75691
X74786Y76008
X74814Y75217
X79485Y75945
X86868Y73787
X89108Y73824
X91295Y73837
X94361Y73787
X96983Y74284
X97917Y73787
X98385Y74974
X98942Y74254
X98953Y75859
X104112Y75062
X106331Y74360
X110213Y74319
X111706Y74903
X114122Y74753
X116840Y74930
X120015
X123190
X127000
X127635Y73660
X129540Y75565
X162627Y75232
X162897Y75958
X163007Y74252
X164104Y74438
X175895Y74295
X178435Y74930
X182245Y74295
X186055Y74930
X187515Y74897
X189501Y75783
X197218Y75197
X198818
X202855Y75238
X204073Y76008
X205865Y76022
X210050Y74364
X212168Y75176
X214227Y74865
X215060Y76097
X215748Y74829
X217288Y76133
X218463Y74784
X223520Y76200
X220980
X218463Y77221
X215640Y77220
X214807Y78599
X214299Y77148
X210891Y76220
X206677Y76610
X204955Y76624
X203009Y76582
X198818Y76797
X197090Y76788
X189660Y77754
X189501Y76602
X189277Y78729
X188949Y77589
X188391Y76898
X186753Y76875
X186371Y77668
X185224Y78305
X184480Y76947
X184246Y77963
X180706Y77944
X177185Y77963
X167105Y78640
X167039Y76854
X166361Y78624
X165628Y78615
X164800Y78590
X157480Y77470
X153035
X147320
X140970
X133114Y77876
X129061Y77324
X128046Y78317
X111437Y77083
X110567Y78035
X105684Y77216
X101190Y78728
X95242Y76468
X92873Y76506
X77000Y77398
X76431Y78039
X75651Y78036
X74803Y77666
X74797Y76764
X70394Y77272
X67135Y76894
X64819Y76950
X62461Y76319
X61618Y77226
X61530Y76319
X59984Y77243
X58537Y77261
X57216Y77236
X55470Y76332
X54588
X52995Y77234
X38730Y76398
X35460Y76471
X27940Y76200
X22097Y76338
X17780Y76200
X15240
X14740Y77846
X10160Y76200
X2540
X4953Y78867
X15240Y78740
X20320
X25400
X28186Y81028
X37257Y79493
X41284Y80622
X43317Y80689
X54056Y79810
X55991Y80803
X62679Y79768
X82611Y81015
X86233Y80391
X87301Y78945
X88012Y78922
X88898Y78918
X91186Y80391
X93798Y78872
X96446
X98715Y79630
X102362
X107168Y79525
X110286Y78808
X120153Y79476
X125815Y78987
X135247Y80766
X171386Y79891
X172479Y79652
X173473Y79485
X173679Y80196
X180261Y80467
X185621Y79542
X186942Y79524
X188258Y78811
X191407Y81072
X194047Y78837
X194205Y79756
X196427Y79828
X198528
X200212Y78750
X214807Y81268
X217170Y78740
X223520Y81280
X198649Y82968
X197707Y81302
X196451Y82968
X194253
X193408Y81471
X191469Y82958
X188275Y82268
X184439Y83543
X183457Y83502
X182398Y83612
X181274Y83290
X176477Y82807
X176061Y81884
X175539Y82756
X173676Y83571
X172317Y83366
X171332Y83412
X169046Y83313
X168918Y82471
X167169Y83618
X164676
X161968Y83484
X160700Y82197
X160683Y83655
X159677Y83604
X151765Y83185
X141359Y83796
X140338Y83524
X139255Y83558
X138397Y83590
X137796Y81850
X137651Y83671
X136929
X136760Y82026
X136009Y81381
X134221Y82114
X133458Y83608
X130727Y83646
X129415Y83673
X128242Y83529
X127429Y83567
X126374Y83501
X125187Y83660
X123902Y83471
X121781Y83581
X120686Y83406
X118660Y83625
X117860Y83605
X116773Y83617
X109539Y83084
X108742
X107533Y83585
X106820Y83185
X91477Y82448
X87376Y82550
X84455
X81407
X72580Y83285
X68576Y83022
X17780Y81280
X12446Y81597
X2540Y81280
X4953Y83820
X7143Y86087
X10160Y83820
X15240
X20320
X25400
X67672Y83839
X70238Y83925
X71649Y86349
X74472Y84306
Y86260
X74522Y85103
X100973Y85262
X101749Y85234
X102461Y85264
X103214Y85203
X106785Y83896
X111117Y84849
X113119Y85949
X115987Y84880
Y85813
X143078Y84307
X151765Y84201
X154646Y85509
X157223Y85107
X158420Y83908
X176815Y85269
X188308Y84391
X190540Y84273
X191241Y85238
X193263Y86060
X193287Y84224
X194234Y85091
X195364Y86108
X196291Y85095
X197610Y86036
X197731Y84248
X200660Y84455
X203200
X205740
X208280
X214630
X218093Y84815
X220980Y83820
X223520Y86360
X218440
X217899Y87354
X215900Y86360
X213360
X184150
X180959Y86548
X180340Y86995
X178252Y86585
X173956Y87867
X170026Y86560
X166365Y86542
X164129Y86956
X163245Y87417
X162534Y87334
X161866Y86709
X160859Y86670
X156600Y86594
X152429Y86629
X137009Y86542
X114199Y88784
X112192Y88445
X105075Y88882
X104243Y88842
X81635Y88615
X80591Y87510
X78729Y88494
X76032Y87658
X75235Y87796
X72198Y86857
X69002Y86944
X39318Y88470
X38593Y88538
X36841Y88087
X34636Y88066
X27940Y86360
X26934Y88013
X23790Y86649
X22252Y86393
X21545Y88019
X17780Y86360
X12700
X2540
X4953Y88900
X10160
X16510
X17407Y90078
X21381Y91155
X26631Y91172
X33623Y90891
X33708Y89694
X37656Y89550
X54085Y90153
X62393Y90861
X63388
X64505Y90806
X66847Y89163
X68588Y91022
X69339Y89542
X76311Y89028
X96520Y88900
X99060
X101600
X106680
X112166Y91130
X155949Y88971
X162752Y88945
X165984
X166683Y91373
X170180Y88900
X180191Y89077
X180340Y90805
X181743Y89043
X212235Y90526
X212420Y89205
X213360Y88900
X214630Y90170
X215900Y88900
X217170Y90170
X218440Y88900
Y91440
X214606Y93459
X213360Y91440
X212148Y93019
X207160Y93449
X200554Y93590
X184323Y92530
X183646Y91597
X181750Y91739
X180526Y91845
X179735Y91855
X178932Y91877
X171537Y91820
X170825
X169520Y91807
X167800Y91878
X165964Y91446
X165343Y91878
X163075Y91738
X161971
X160943Y91714
X159407Y93843
X159401Y92979
X153924Y93216
X138794Y91878
X137413Y91814
X136613Y91851
X135855Y91870
X134776Y91837
X129405Y91846
X126607Y91835
X123605Y91862
X119860Y91866
X118994
X118172Y91851
X116682Y93845
X116299Y92982
X112156Y92640
X81530Y92781
X80576Y93616
X80315Y92781
X70284Y92959
X65487Y93412
X56390Y93130
X35290Y93147
X34961Y91718
X33638Y93267
X29210Y91440
X25447Y93540
X18790Y93478
X16646Y91965
X12707Y93575
X9906Y93345
X65419Y94564
X124706Y94768
X125417Y94779
X140633Y94751
X146104Y94852
X167467Y94749
X168390
X168973Y95546
X169922Y95367
X170786Y95222
X171563Y95109
X174021Y94742
X176161Y95329
X176242Y94111
X178937Y95450
X184180Y96333
X188644Y94757
X204420Y94103
X209456Y94225
X217443Y94398
X218440Y96520
X213360
X208280
X203200
X198120
X193040
X191557Y98992
X187960Y96520
X185280Y97300
X184204Y97460
X182880Y96520
X180038Y96836
Y97852
X167557Y97289
X166784Y98836
X166541Y96860
X165821Y97002
X164437Y96829
X164058Y98150
X163347Y98432
X162560Y96520
X157480
X156557Y97465
X146400Y97434
X143606Y97231
X139843Y98905
X137160Y96520
X132080
X132012Y98365
X128559Y98905
X127000Y96520
X123055Y98944
X121920Y96520
X116840
X111760
X106680
X101600
X96520
X91440
X86360
X81280
X76200
X71120
X66040
X60960
X55880
X50800
X45720
X40640
X35560
X30480
X25400
X20320
X15240
X10160
X2540Y99060
X7620
X12700
X17780
X22860
X27940
X33020
X38100
X43180
X48260
X53340
X58420
X63500
X68580
X73660
X78740
X83820
X88900
X93980
X99060
X104140
X109220
X114300
X119380
X124122Y99067
X134620Y99060
X144780
X149860
X154940
X160020
X165100
X180340
X182880
X195580
X198120
X210820
X220980
T14
X110088Y49414
X111358
T08
X49393Y14280
X49893Y12780
X51393Y14280
X52393Y12780
X53393Y14280
X54393Y12780
X55393Y14280
X56893Y12780
X57393Y14280
T15
X41370Y92456
X39370
X37370
T06
X208421Y6501
X206381
X204341
X202301
X192671
X190631
X188591
X186551
X176921
X174881
X172841
X170801
X161171
X159131
X157091
X155051
X145421
X143381
X141341
X139301
X129671
X127631
X125591
X123551
X122531Y8281
X124571
X126611
X128651
X138281
X140321
X142361
X144401
X154031
X156071
X158111
X160151
X169781
X171821
X173861
X175901
X185531
X187571
X189611
X191651
X201281
X203321
X205361
X207401
T18
X92500Y40000
T12
X80962Y15766
X78422
X75882
X73342
X70802
X69532Y18306
X72072
X74612
X77152
X79692
T16
X106750Y32800
X92500
X106750Y37500
X92500
X106750Y42500
X92500
X104430Y47100
X99630
X94830
T07
X210947Y18161
X216027
Y20701
X210947
X195351Y81178
Y83718
X110515Y89738
Y92278
X50358Y91495
X47691
X45024
Y94035
X47691
X50358
T20
X114467Y6096
X109967
T01
X68923Y4336
X79032
X81572Y6038
X71463
X5842Y15621
X36322Y18161
X218567Y36703
X216027
Y39243
X218567
Y41783
X216027
Y44323
X218567
Y46863
X216027
Y49403
X218567
Y51943
X216027
Y54483
X218567
Y57023
X216027
X3302Y58801
X5842
X8382
X10922
X13462
X16002
X18542
X21082
X23622
X216027Y59563
X218567
Y62103
X216027
X23622Y61341
X21082
X18542
X16002
X13462
X10922
X8382
X5842
X3302
X216027Y64643
X218567
X15240Y66802
X2540Y69342
X5080
X7620
X10160
X12700
X15240
X31107Y77140
X8247
Y79680
X31107
Y82220
X8247
Y84760
X31107
Y87300
X8247
Y89840
X31107
X216027Y92583
X190627
X31107Y92380
X8247
Y94920
X31107
T17
X92500Y10000
X101080
X106750Y15000
X92500Y20000
X106750Y25000
X92500Y30000
X98180
X103580
X106750Y35000
Y45000
T13
X62738Y83439
X60198
X57658
X55118
X52578
X50038
X47498
X44958
X42418
X39878
Y85979
X42418
X44958
X47498
X50038
X52578
X55118
X57658
X60198
X62738
T19
X108717Y8596
X115717
T34
X51998Y73254
X99261Y85237
T11
X83134Y12565
X67361
T05
X213006Y7391
X117956
X157606Y14121
X173356
T09
X59963Y10780
X46823
T10
X76975Y32663
X48075
Y78063
T28
X82640Y36000
X42640
X82640Y77000
X42640
T02
X87500Y6000
X3000Y20000
X222000
X61998Y33004
X3000Y94000
X150000
X222000
T03
X183894Y41114
X183890Y41110
X159694Y41114
X159690Y41110
X140957Y41114
X140913Y41110
X116757Y41114
X116713Y41110
Y65260
X116757Y65264
X140913Y65260
X140957Y65264
X159690Y65260
X159694Y65264
T00
M30
